<?xml version="1.0" encoding="UTF-8" standalone="no" ?>
<!DOCTYPE svg PUBLIC "-//W3C//DTD SVG 1.1//EN" "http://www.w3.org/Graphics/SVG/1.1/DTD/svg11.dtd">
<svg xmlns="http://www.w3.org/2000/svg" xmlns:xlink="http://www.w3.org/1999/xlink" version="1.1" width="48" height="48" viewBox="0 0 48 48" xml:space="preserve">
<desc>Created with Fabric.js 5.3.0</desc>
<defs>
</defs>
<g transform="matrix(0.07058823529411765 0 0 0.07058823529411765 24 24)" id="background-68fb9adb-208d-4372-8641-f26a7ec151a7"  >
<rect style="stroke: none; stroke-width: 0; stroke-dasharray: none; stroke-linecap: butt; stroke-dashoffset: 0; stroke-linejoin: miter; stroke-miterlimit: 4; fill: rgb(242,242,240); fill-rule: nonzero; opacity: 1;"  paint-order="stroke"  x="-340" y="-340" rx="0" ry="0" width="680" height="680" />
</g>
<g transform="matrix(0.07384615384615385 0 0 0.07384615384615385 24 23.92975501832177)" id="maker-logo"  >
<g style=""  paint-order="stroke"   >
		<g transform="matrix(1 0 0 1 0 0)" id="background-logo"  >
<rect style="stroke: none; stroke-width: 0; stroke-dasharray: none; stroke-linecap: butt; stroke-dashoffset: 0; stroke-linejoin: miter; stroke-miterlimit: 4; fill: rgb(242,242,240); fill-rule: nonzero; opacity: 0; visibility: hidden;"  paint-order="stroke"  x="-325" y="-260" rx="0" ry="0" width="650" height="520" />
</g>
		<g transform="matrix(1 0 0 1 0 -49.388127751714194)" id="logo-logo"  >
<g style=""  paint-order="stroke"   >
		<g transform="matrix(0.29305957206416106 0 0 0.29305957206416106 0 -2.842171e-14)"  >
<linearGradient id="SVGID_269443" gradientUnits="userSpaceOnUse" gradientTransform="matrix(1 0 0 1 230.60000000000002 216.30000000000007)"  x1="297.5" y1="0" x2="297.5" y2="593.0999999999999">
<stop offset="0%" style="stop-color:rgb(228,191,198);stop-opacity: 1"/>
<stop offset="100%" style="stop-color:rgb(66,53,58);stop-opacity: 1"/>
</linearGradient>
<path style="stroke: none; stroke-width: 1; stroke-dasharray: none; stroke-linecap: butt; stroke-dashoffset: 0; stroke-linejoin: miter; stroke-miterlimit: 4; fill: url(#SVGID_269443); fill-rule: nonzero; opacity: 1;"  paint-order="stroke"  transform=" translate(-528.1, -512.85)" d="M 825.6 316.5 L 799 314.6 C 683.9 306.5 595.7 355.3 569 372.20000000000005 C 544.1 365.50000000000006 517.8 362.00000000000006 491 362.00000000000006 C 487.2 362.00000000000006 483.4 362.1000000000001 479.6 362.20000000000005 L 389.90000000000003 216.30000000000004 L 372.3 229.70000000000005 C 336.7 256.90000000000003 307.1 292.80000000000007 284.3 336.50000000000006 C 266.3 370.90000000000003 252.60000000000002 410.20000000000005 243.4 453.30000000000007 C 230.5 513.5000000000001 230.3 563.7 230.70000000000002 580.7 C 230.70000000000002 582.4000000000001 230.60000000000002 584 230.60000000000002 585.7 C 230.60000000000002 646.1 258.1 702.7 308.1 745 C 357.1 786.5 422.1 809.4 491.1 809.4 C 497.8 809.4 504.5 809.1999999999999 511.1 808.6999999999999 L 511.1 768.5999999999999 C 511.1 768.5999999999999 511.1 768.5999999999999 511.1 768.5999999999999 L 511.1 722.4999999999999 L 540.2 693.3999999999999 L 442.00000000000006 693.3999999999999 L 471.1000000000001 722.4999999999999 L 471.1000000000001 768.5999999999999 C 358.80000000000007 760.0999999999999 270.6000000000001 681.3 270.6000000000001 585.5999999999999 C 270.6000000000001 585.3 270.6000000000001 584.8999999999999 270.6000000000001 584.5999999999999 L 270.80000000000007 584.5999999999999 C 270.80000000000007 584.4999999999999 270.70000000000005 583.0999999999999 270.70000000000005 580.4999999999999 C 274.00000000000006 481.5999999999999 371.6 401.89999999999986 491.1 401.89999999999986 C 612.7 401.89999999999986 711.6 484.29999999999984 711.6 585.6999999999998 C 711.6 669.6999999999998 643.6 740.6999999999998 551.1 762.4999999999998 L 551.1 803.4999999999998 C 597.2 794.1999999999998 639.6 774.1999999999998 674.1 744.9999999999998 C 724.1 702.5999999999998 751.6 646.0999999999998 751.6 585.6999999999998 C 751.6 568.4999999999998 749.4 551.5999999999998 745 535.1999999999998 L 825.6 316.5 z M 285.6 448.1 C 298.8 393.8 325.6 325.5 379.6 275.90000000000003 L 435.70000000000005 367.1 C 424.20000000000005 369.20000000000005 413.00000000000006 372 402.1 375.40000000000003 L 374.3 330.20000000000005 L 368.2 338.90000000000003 C 354 359.1 342 382.40000000000003 332.2 408.40000000000003 C 323.8 414.00000000000006 315.8 420.00000000000006 308.09999999999997 426.40000000000003 C 299.9 433.3 292.4 440.6 285.6 448.1 z M 644.8 378.9 C 674.0999999999999 367.29999999999995 717.9 354.5 769.1999999999999 353.7 L 722 482 C 715.3 471 707.4 460.4 698.5 450.4 L 720.3 391.4 L 707.8 394.2 C 696.8 396.59999999999997 685.5999999999999 399.7 674.6999999999999 403.4 C 667.6999999999999 405.7 660.6999999999999 408.29999999999995 653.8 411.09999999999997 C 642.6999999999999 403.4 630.9 396.59999999999997 618.5999999999999 390.59999999999997 C 626.2 386.8 635 382.8 644.8 378.9 z M 393.5 568.6 C 383.7 581.6 371.3 606.1 384.9 636.3000000000001 C 384.9 636.3000000000001 393.09999999999997 605.6 416.79999999999995 591.7 L 470.9 645.5 C 470.9 645.5 392 689.9 346 645.5 C 300 601.1 341.4 516.8 341.4 516.8 L 393.5 568.6 z M 597.2 636.4 C 610.8000000000001 606.1999999999999 598.4000000000001 581.6 588.6 568.6999999999999 L 640.7 516.9 C 640.7 516.9 682.1 601.1999999999999 636.1 645.5999999999999 C 590.1 689.9999999999999 511.3 645.5999999999999 511.3 645.5999999999999 L 565.4 591.8 C 588.9 605.7 597.2 636.4 597.2 636.4 z" stroke-linecap="round" />
</g>
</g>
</g>
		<g transform="matrix(1 0 0 1 -1.0127791949599327 78.61851727757139)" id="text-logo"  >
<g style=""  paint-order="stroke"   >
		<g transform="matrix(1 0 0 1 0 0)" id="text-logo-path-0"  >
<linearGradient id="SVGID_269452" gradientUnits="userSpaceOnUse" gradientTransform="matrix(1 0 0 1 -0.3715039962132778 -60.88)"  x1="46.858497619628906" y1="0" x2="46.858497619628906" y2="44">
<stop offset="0%" style="stop-color:rgb(228,191,198);stop-opacity: 1"/>
<stop offset="100%" style="stop-color:rgb(66,53,58);stop-opacity: 1"/>
</linearGradient>
<path style="stroke: none; stroke-width: 0; stroke-dasharray: none; stroke-linecap: butt; stroke-dashoffset: 0; stroke-linejoin: miter; stroke-miterlimit: 4; fill: url(#SVGID_269452); fill-rule: nonzero; opacity: 1;"  paint-order="stroke"  transform=" translate(-45.85424800189336, 12.027031535115704)" d="M 39.12 -15.56 C 34.32 -13.81 29.68 -11.58 25.27 -9.01 C 25.93 -18.76 26.13 -32.41 25.86 -42.16 C 25.82 -43.99 25.74 -45.86 25.62 -47.7 C 25.55 -48.95 25.31 -50.19 24.77 -51.36 C 24.3 -52.34 23.52 -53.2 22.46 -53.47 C 20.98 -53.9 19.7 -53 18.56 -52.18 C 13.1 -48.28 8.19 -43.68 3.86 -38.53 C 2.81 -37.32 1.83 -36.04 0.86 -34.75 C 0.16 -33.85 1.72 -32.6 2.42 -33.54 C 6.16 -38.34 10.37 -42.7 15.05 -46.6 C 16.22 -47.62 17.47 -48.55 18.68 -49.49 C 19.42 -50.08 21.06 -51.75 22.07 -51.28 C 22.85 -50.9 23.13 -49.61 23.24 -48.83 C 23.48 -47.35 23.4 -45.83 23.44 -44.34 C 23.71 -33.27 23.44 -18.37 22.58 -7.33 L 21.41 -6.63 C 15.95 -3.35 10.96 0.97 6.9 5.89 C 2.96 10.61 -0.04 16.26 -0.35 22.5 C -0.62 27.92 1.64 34.28 7.14 36.35 C 9.71 37.32 12.71 36.74 14.98 35.22 C 17.59 33.5 19.23 30.77 20.2 27.89 C 21.33 24.57 21.76 20.98 22.27 17.55 C 22.85 13.88 23.36 10.26 23.79 6.59 C 24.3 2.54 24.69 -1.52 25.04 -5.58 C 28.39 -7.8 31.9 -9.71 35.57 -11.39 C 36.97 -12.01 38.38 -12.56 39.78 -13.1 C 41.3 -13.69 40.68 -16.11 39.12 -15.56 Z M 2.92 24.84 C 2.57 19.38 4.88 14.23 8 9.87 C 11.31 5.23 15.64 1.25 20.16 -2.18 C 20.86 -2.73 21.57 -3.24 22.27 -3.74 C 22.15 -2.38 22.04 -1.05 21.88 0.31 C 21.22 7.1 20.28 13.85 19.19 20.55 C 18.68 23.56 18.17 26.71 16.69 29.45 C 15.52 31.55 13.42 33.54 10.96 33.89 C 6.08 34.59 3.2 28.9 2.92 24.84 Z M 60.33 14.23 C 60.92 14.23 61.5 14.2 62.05 14.12 C 65.56 13.57 68.52 11.27 70.94 8.85 C 75.66 4.17 80.03 -1.52 81.59 -8.07 C 84.32 -8.03 87.24 -7.84 90.48 -7.45 C 91.34 -7.33 92.08 -8 92.08 -8.85 C 92.08 -9.59 91.53 -10.18 90.83 -10.26 C 87.67 -10.65 84.79 -10.84 82.06 -10.92 C 82.13 -11.54 82.17 -12.21 82.17 -12.87 C 82.17 -14.39 81.98 -15.95 81.63 -17.43 L 80.81 -20.01 C 80.03 -21.88 78.94 -23.59 77.45 -25 C 72.15 -30.11 64.58 -29.41 57.88 -30.58 C 54.64 -31.12 51.44 -32.14 49.18 -34.59 C 47.81 -36.04 47.15 -37.71 47.15 -39.43 C 47.15 -40.56 47.42 -41.73 48.01 -42.86 C 50.86 -48.48 56.51 -52.92 62.24 -55.38 C 64.94 -56.51 68.72 -57.68 72.19 -57.68 C 75.39 -57.68 78.35 -56.71 79.95 -53.78 C 80.38 -53 80.57 -52.18 80.57 -51.32 C 80.57 -50.9 80.53 -50.43 80.42 -50 C 80.38 -49.88 80.38 -49.73 80.38 -49.61 C 80.38 -48.83 81.08 -48.32 81.78 -48.32 C 82.33 -48.32 82.88 -48.59 83.07 -49.3 C 83.27 -49.96 83.38 -50.66 83.38 -51.36 C 83.38 -53.63 82.33 -55.85 80.73 -57.49 C 78.39 -59.94 74.96 -60.88 71.64 -60.88 C 65.09 -60.88 58.46 -58.03 53.27 -54.02 C 50.7 -52.03 48.4 -49.65 46.49 -46.96 C 44.89 -44.69 43.68 -42.08 43.68 -39.31 C 43.68 -38.65 43.76 -37.95 43.91 -37.24 C 44.66 -34.16 46.96 -31.63 49.57 -29.95 C 52.61 -28.04 56.24 -27.42 59.75 -27.03 C 65.83 -26.36 73.44 -26.44 77.22 -20.71 C 77.38 -20.44 78.55 -18.37 79.05 -16.5 C 79.37 -15.25 79.52 -13.96 79.52 -12.68 C 79.52 -12.09 79.48 -11.51 79.44 -10.92 C 59.28 -10.57 51.6 -1.56 51.6 5.54 C 51.6 10.34 55.03 14.23 60.33 14.23 Z M 54.44 5.54 C 54.44 -0.2 60.76 -7.61 78.9 -8.03 C 78.47 -6.51 77.88 -4.99 77.14 -3.59 C 75.54 -0.58 73.44 2.07 71.1 4.49 C 68.84 6.9 66.3 9.71 63.1 10.88 C 62.2 11.19 61.23 11.39 60.29 11.39 C 56.51 11.39 54.44 9.05 54.44 5.54 Z" stroke-linecap="round" />
</g>
</g>
</g>
		<g transform="matrix(1 0 0 1 -0.006499999999988404 130.388189613157)" id="tagline-27ae59fa-4221-442e-b3aa-0bee06bce2c3-logo"  >
<g style=""  paint-order="stroke"   >
		<g transform="matrix(1 0 0 1 0 0)" id="tagline-27ae59fa-4221-442e-b3aa-0bee06bce2c3-logo-path-0"  >
<linearGradient id="SVGID_269453" gradientUnits="userSpaceOnUse" gradientTransform="matrix(1 0 0 1 0.75 -17.37)"  x1="156.27300079345707" y1="0" x2="156.27300079345707" y2="29">
<stop offset="0%" style="stop-color:rgb(228,191,198);stop-opacity: 1"/>
<stop offset="99%" style="stop-color:rgb(66,53,58);stop-opacity: 1"/>
</linearGradient>
<path style="stroke: none; stroke-width: 0; stroke-dasharray: none; stroke-linecap: butt; stroke-dashoffset: 0; stroke-linejoin: miter; stroke-miterlimit: 4; fill: url(#SVGID_269453); fill-rule: nonzero; opacity: 1;"  paint-order="stroke"  transform=" translate(-156.285, 7.970000000000001)" d="M 14.95 -17.34 L 14.95 -17.34 Q 15.5 -17.34 15.7 -16.56 L 15.7 -16.56 Q 15.55 -13.94 15.37 -12.83 Q 15.18 -11.73 15.07 -10.89 Q 14.95 -10.06 14.91 -9.75 Q 14.87 -9.44 14.69 -8.48 Q 14.51 -7.51 14.31 -6.57 Q 14.12 -5.62 14.08 -5.43 Q 14.04 -5.25 13.6 -3.11 Q 13.16 -0.96 12.94 -0.48 Q 12.71 0 12.18 0 Q 11.65 0 11.34 -0.31 L 11.34 -0.31 Q 10.14 -1.95 9.07 -4.37 L 9.07 -4.37 Q 8.81 -4.99 8.49 -5.72 Q 8.16 -6.45 8.01 -6.81 L 8.01 -6.81 L 7.77 -7.36 Q 7.23 -6.42 6.27 -4.19 Q 5.3 -1.95 4.58 -0.6 L 4.58 -0.6 Q 4.11 0 3.54 0 L 3.54 0 Q 2.34 0 1.72 -6.37 L 1.72 -6.37 Q 1.72 -6.4 1.68 -6.66 Q 1.64 -6.92 1.57 -7.57 Q 1.51 -8.22 1.42 -9.01 Q 1.33 -9.8 0.75 -15.57 L 0.75 -15.57 Q 0.75 -16.09 1.14 -16.52 Q 1.53 -16.95 2 -16.95 L 2 -16.95 Q 2.57 -16.95 2.78 -16.2 L 2.78 -16.2 Q 3.48 -7.75 4.19 -3.72 L 4.19 -3.72 Q 4.39 -4.08 5.25 -6.12 Q 6.11 -8.16 6.81 -9.37 Q 7.51 -10.58 8.16 -10.58 L 8.16 -10.58 Q 8.61 -10.58 8.92 -10.11 L 8.92 -10.11 Q 10.56 -5.46 11.73 -3.56 L 11.73 -3.56 Q 11.75 -3.85 12.04 -5.12 L 12.04 -5.12 L 12.38 -6.79 Q 12.38 -6.94 12.44 -7.23 Q 12.51 -7.51 12.55 -7.79 Q 12.58 -8.06 12.64 -8.29 L 12.64 -8.29 L 12.92 -9.93 Q 13.55 -13.78 13.7 -16.25 L 13.7 -16.25 Q 13.81 -16.69 14.18 -17.02 Q 14.56 -17.34 14.95 -17.34 Z M 30.55 -5.12 L 30.45 -8.94 Q 30.08 -9.18 30.08 -9.62 Q 30.08 -10.06 30.37 -10.43 L 30.37 -10.43 Q 30.26 -13.03 30.26 -15.91 L 30.26 -15.91 Q 30.42 -16.54 30.75 -16.82 Q 31.07 -17.11 31.69 -17.19 L 31.69 -17.19 Q 35.13 -17.03 39.13 -17.03 L 39.13 -17.03 Q 40.12 -16.82 40.12 -16.17 L 40.12 -16.17 Q 40.12 -15.08 37.99 -14.9 L 37.99 -14.9 Q 37.41 -14.87 36.74 -14.87 L 36.74 -14.87 L 35.05 -14.87 Q 34.55 -14.87 32.32 -15.08 L 32.32 -15.08 Q 32.32 -11.83 32.42 -10.61 L 32.42 -10.61 Q 33.8 -10.58 37.73 -10.58 L 37.73 -10.58 Q 38.66 -10.4 38.66 -9.74 Q 38.66 -9.07 37.91 -8.71 L 37.91 -8.71 Q 37.83 -8.66 37.62 -8.61 L 37.62 -8.61 L 33.12 -8.68 Q 32.71 -8.68 32.45 -8.63 L 32.45 -8.63 L 32.55 -4.16 Q 32.55 -2.65 32.47 -2 L 32.47 -2 L 38.51 -2.08 Q 39.34 -1.95 39.34 -1.38 L 39.34 -1.38 Q 39.34 -0.99 38.99 -0.6 Q 38.64 -0.21 38.17 -0.1 L 38.17 -0.1 L 31.51 0 Q 30.91 0 30.68 -0.22 Q 30.45 -0.44 30.45 -0.96 L 30.45 -0.96 Q 30.55 -1.69 30.55 -3.3 L 30.55 -3.3 L 30.55 -5.12 Z M 58.66 -0.05 L 58.66 -0.05 L 55.3 -0.13 Q 55.02 -1.22 54.96 -9.96 L 54.96 -9.96 L 54.96 -11.8 Q 54.96 -14.01 55.38 -15.17 Q 55.8 -16.33 57.12 -17.03 L 57.12 -17.03 Q 57.8 -17.37 59.01 -17.37 Q 60.22 -17.37 60.87 -17.21 L 60.87 -17.21 Q 62.61 -16.85 63.25 -15.86 Q 63.88 -14.87 63.88 -13.21 L 63.88 -13.21 Q 63.88 -10.89 62.66 -9.8 L 62.66 -9.8 Q 63.28 -9.72 63.91 -9.18 Q 64.53 -8.63 64.92 -8.06 L 64.92 -8.06 Q 65.6 -7.02 65.6 -5.23 L 65.6 -5.23 Q 65.6 -2.42 63.9 -1.24 Q 62.19 -0.05 58.66 -0.05 Z M 57.04 -12.71 L 57.04 -12.71 L 57.1 -9.75 Q 57.15 -9.75 57.98 -9.87 Q 58.81 -9.98 59.38 -10.11 L 59.38 -10.11 Q 62.01 -10.74 62.01 -13.1 L 62.01 -13.1 Q 62.01 -14.27 61.32 -14.82 Q 60.63 -15.37 59.51 -15.37 L 59.51 -15.37 Q 58.11 -15.37 57.62 -14.87 L 57.62 -14.87 Q 57.41 -14.66 57.28 -14.52 Q 57.15 -14.38 57.1 -14.07 Q 57.04 -13.75 57.03 -13.62 Q 57.02 -13.49 57.03 -13.13 Q 57.04 -12.77 57.04 -12.71 Z M 62.91 -7.19 Q 62.63 -7.46 62.09 -7.7 Q 61.54 -7.93 60.52 -7.93 Q 59.49 -7.93 57.02 -7.59 L 57.02 -7.59 Q 57.02 -3.54 57.15 -2.11 L 57.15 -2.11 Q 60.19 -2.11 61.41 -2.51 Q 62.63 -2.91 63.06 -3.5 Q 63.49 -4.08 63.49 -4.75 Q 63.49 -5.41 63.48 -5.68 Q 63.47 -5.95 63.32 -6.44 Q 63.18 -6.92 62.91 -7.19 Z M 100.54 0.73 L 100.2 -0.83 Q 99.81 -1.12 99.81 -1.47 Q 99.81 -1.82 100.1 -2.05 L 100.1 -2.05 Q 99.61 -5.77 99.61 -10.58 L 99.61 -10.58 Q 99.61 -12.04 99.74 -16.25 L 99.74 -16.25 Q 99.87 -16.64 100.27 -16.93 Q 100.67 -17.21 101.04 -17.21 Q 101.4 -17.21 101.48 -17.19 L 101.48 -17.19 Q 105.2 -16.15 107.95 -13.17 Q 110.71 -10.19 110.84 -6.03 L 110.84 -6.03 Q 110.84 -1.46 107.04 -0.29 L 107.04 -0.29 Q 105.95 0.05 104.74 0.05 Q 103.53 0.05 102.62 -0.13 L 102.62 -0.13 Q 102.73 0.08 102.73 0.43 Q 102.73 0.78 102.3 1.11 Q 101.87 1.43 101.28 1.43 Q 100.7 1.43 100.54 0.73 L 100.54 0.73 Z M 101.76 -10.79 L 101.76 -10.79 Q 101.76 -6.24 102.28 -2.16 L 102.28 -2.16 Q 102.91 -1.98 104.39 -1.98 Q 105.87 -1.98 107.24 -2.47 Q 108.6 -2.96 108.68 -3.93 L 108.68 -3.93 Q 108.76 -4.65 108.76 -5.04 L 108.76 -5.04 Q 108.76 -8.42 106.95 -11.02 Q 105.14 -13.62 101.89 -14.98 L 101.89 -14.98 Q 101.76 -11.91 101.76 -10.79 Z M 125.55 -5.12 L 125.45 -8.94 Q 125.09 -9.18 125.09 -9.62 Q 125.09 -10.06 125.37 -10.43 L 125.37 -10.43 Q 125.27 -13.03 125.27 -15.91 L 125.27 -15.91 Q 125.42 -16.54 125.75 -16.82 Q 126.07 -17.11 126.7 -17.19 L 126.7 -17.19 Q 130.13 -17.03 134.13 -17.03 L 134.13 -17.03 Q 135.12 -16.82 135.12 -16.17 L 135.12 -16.17 Q 135.12 -15.08 132.99 -14.9 L 132.99 -14.9 Q 132.42 -14.87 131.74 -14.87 L 131.74 -14.87 L 130.05 -14.87 Q 129.56 -14.87 127.32 -15.08 L 127.32 -15.08 Q 127.32 -11.83 127.43 -10.61 L 127.43 -10.61 Q 128.8 -10.58 132.73 -10.58 L 132.73 -10.58 Q 133.67 -10.4 133.67 -9.74 Q 133.67 -9.07 132.91 -8.71 L 132.91 -8.71 Q 132.83 -8.66 132.63 -8.61 L 132.63 -8.61 L 128.13 -8.68 Q 127.71 -8.68 127.45 -8.63 L 127.45 -8.63 L 127.56 -4.16 Q 127.56 -2.65 127.48 -2 L 127.48 -2 L 133.51 -2.08 Q 134.34 -1.95 134.34 -1.38 L 134.34 -1.38 Q 134.34 -0.99 133.99 -0.6 Q 133.64 -0.21 133.17 -0.1 L 133.17 -0.1 L 126.52 0 Q 125.92 0 125.68 -0.22 Q 125.45 -0.44 125.45 -0.96 L 125.45 -0.96 Q 125.55 -1.69 125.55 -3.3 L 125.55 -3.3 L 125.55 -5.12 Z M 156.18 -0.49 L 156.18 -0.49 Q 155.12 -3.64 153.97 -6.25 Q 152.83 -8.87 151.03 -12.82 L 151.03 -12.82 Q 150.41 -14.2 150.25 -14.52 Q 150.1 -14.85 150.1 -15.25 Q 150.1 -15.65 150.5 -16.04 Q 150.9 -16.43 151.4 -16.43 Q 151.89 -16.43 152.23 -15.94 L 152.23 -15.94 L 153.48 -13.08 Q 156.1 -7.02 157.22 -4.26 L 157.22 -4.26 L 157.69 -6.08 Q 158.26 -8.48 158.89 -10.82 L 158.89 -10.82 Q 160.65 -17.21 162.37 -17.21 L 162.37 -17.21 Q 162.68 -17.21 162.9 -17.03 Q 163.12 -16.85 163.12 -16.54 Q 163.12 -16.22 162.8 -15.63 Q 162.47 -15.03 161.98 -13.47 Q 161.49 -11.91 161.37 -11.64 Q 161.25 -11.36 160.12 -7.25 Q 158.99 -3.15 158.18 -0.81 L 158.18 -0.81 Q 158.05 -0.39 157.69 -0.12 Q 157.33 0.16 156.87 0.16 Q 156.42 0.16 156.18 -0.49 Z M 177.66 -5.12 L 177.55 -8.94 Q 177.19 -9.18 177.19 -9.62 Q 177.19 -10.06 177.48 -10.43 L 177.48 -10.43 Q 177.37 -13.03 177.37 -15.91 L 177.37 -15.91 Q 177.53 -16.54 177.85 -16.82 Q 178.18 -17.11 178.8 -17.19 L 178.8 -17.19 Q 182.23 -17.03 186.24 -17.03 L 186.24 -17.03 Q 187.23 -16.82 187.23 -16.17 L 187.23 -16.17 Q 187.23 -15.08 185.09 -14.9 L 185.09 -14.9 Q 184.52 -14.87 183.85 -14.87 L 183.85 -14.87 L 182.16 -14.87 Q 181.66 -14.87 179.43 -15.08 L 179.43 -15.08 Q 179.43 -11.83 179.53 -10.61 L 179.53 -10.61 Q 180.91 -10.58 184.83 -10.58 L 184.83 -10.58 Q 185.77 -10.4 185.77 -9.74 Q 185.77 -9.07 185.02 -8.71 L 185.02 -8.71 Q 184.94 -8.66 184.73 -8.61 L 184.73 -8.61 L 180.23 -8.68 Q 179.82 -8.68 179.56 -8.63 L 179.56 -8.63 L 179.66 -4.16 Q 179.66 -2.65 179.58 -2 L 179.58 -2 L 185.61 -2.08 Q 186.45 -1.95 186.45 -1.38 L 186.45 -1.38 Q 186.45 -0.99 186.09 -0.6 Q 185.74 -0.21 185.28 -0.1 L 185.28 -0.1 L 178.62 0 Q 178.02 0 177.79 -0.22 Q 177.55 -0.44 177.55 -0.96 L 177.55 -0.96 Q 177.66 -1.69 177.66 -3.3 L 177.66 -3.3 L 177.66 -5.12 Z M 201.32 -3.61 L 201.32 -3.61 L 201.34 -5.64 L 201.58 -16.51 Q 201.58 -16.82 201.92 -17 Q 202.25 -17.19 202.77 -17.19 L 202.77 -17.19 Q 204.02 -17.19 204.02 -16.3 L 204.02 -16.3 Q 204.02 -16.02 203.72 -11.93 Q 203.42 -7.85 203.42 -7.05 L 203.42 -7.05 Q 203.42 -7.05 203.42 -4.29 L 203.42 -4.29 Q 203.42 -2.34 203.68 -2.16 L 203.68 -2.16 Q 204.07 -2.03 204.59 -2.03 L 204.59 -2.03 L 208.34 -2.29 Q 209.56 -2.29 209.56 -1.4 L 209.56 -1.4 Q 209.56 -0.7 208.9 -0.38 Q 208.23 -0.05 207.58 -0.01 Q 206.93 0.03 206 0.03 L 206 0.03 Q 201.92 0.03 201.58 -0.23 L 201.58 -0.23 Q 201.4 -0.39 201.37 -1.42 Q 201.34 -2.44 201.33 -2.86 Q 201.32 -3.28 201.32 -3.61 Z M 231.24 -17.29 L 231.24 -17.29 Q 233.06 -17.29 234.34 -16.12 L 234.34 -16.12 Q 236.83 -13.88 236.83 -9.06 Q 236.83 -4.24 234.08 -1.48 L 234.08 -1.48 Q 232.65 -0.1 230.78 0.03 L 230.78 0.03 Q 228.31 0.03 226.93 -1.66 Q 225.55 -3.35 224.96 -5.45 Q 224.38 -7.54 224.38 -9.49 L 224.38 -9.49 Q 224.38 -12.82 225.97 -14.98 L 225.97 -14.98 Q 227.63 -17.29 231.24 -17.29 Z M 231.06 -15.13 L 231.06 -15.13 Q 227.58 -15.13 226.72 -11.83 L 226.72 -11.83 Q 226.46 -10.95 226.46 -9.57 Q 226.46 -8.19 226.98 -6.37 L 226.98 -6.37 Q 227.68 -3.93 229.06 -2.94 L 229.06 -2.94 Q 229.87 -2.31 231.01 -2.31 Q 232.15 -2.31 233.06 -3.34 Q 233.97 -4.37 234.31 -5.95 Q 234.65 -7.54 234.65 -9.15 L 234.65 -9.15 Q 234.65 -12.01 233.83 -13.57 Q 233.01 -15.13 231.06 -15.13 Z M 252.23 -2.65 L 252.23 -2.65 Q 252.04 -5.33 252.04 -9.89 Q 252.04 -14.46 252.17 -15.81 L 252.17 -15.81 Q 252.3 -16.64 253.32 -16.91 Q 254.33 -17.19 256 -17.19 L 256 -17.19 Q 258.44 -17.19 260.12 -16.13 Q 261.79 -15.08 261.79 -13.03 L 261.79 -13.03 Q 261.79 -11.34 261.33 -10.21 Q 260.86 -9.07 260.16 -8.53 L 260.16 -8.53 Q 259.01 -7.64 256.78 -7.64 L 256.78 -7.64 Q 255.81 -7.64 254.25 -7.9 L 254.25 -7.9 Q 254.38 -2.7 254.36 -1.35 Q 254.33 0 253.45 0 L 253.45 0 Q 252.88 0 252.72 -0.21 Q 252.56 -0.42 252.51 -0.51 Q 252.46 -0.6 252.41 -0.78 Q 252.36 -0.96 252.33 -1.08 Q 252.3 -1.2 252.29 -1.43 Q 252.28 -1.66 252.25 -1.79 L 252.25 -1.79 Q 252.23 -2.18 252.23 -2.65 Z M 259.64 -12.96 Q 259.64 -14.01 258.49 -14.63 Q 257.35 -15.24 256.05 -15.24 Q 254.75 -15.24 254.23 -15 L 254.23 -15 Q 254.12 -13.47 254.12 -12.18 Q 254.12 -10.89 254.23 -9.85 L 254.23 -9.85 Q 254.93 -9.78 255.19 -9.72 L 255.19 -9.72 Q 255.87 -9.65 256.35 -9.65 Q 256.83 -9.65 257 -9.66 Q 257.17 -9.67 257.65 -9.74 Q 258.13 -9.8 258.34 -9.96 Q 258.54 -10.11 258.86 -10.37 Q 259.17 -10.63 259.3 -10.97 L 259.3 -10.97 Q 259.64 -11.91 259.64 -12.96 Z M 277.78 -5.12 L 277.68 -8.94 Q 277.32 -9.18 277.32 -9.62 Q 277.32 -10.06 277.6 -10.43 L 277.6 -10.43 Q 277.5 -13.03 277.5 -15.91 L 277.5 -15.91 Q 277.65 -16.54 277.98 -16.82 Q 278.3 -17.11 278.93 -17.19 L 278.93 -17.19 Q 282.36 -17.03 286.36 -17.03 L 286.36 -17.03 Q 287.35 -16.82 287.35 -16.17 L 287.35 -16.17 Q 287.35 -15.08 285.22 -14.9 L 285.22 -14.9 Q 284.65 -14.87 283.97 -14.87 L 283.97 -14.87 L 282.28 -14.87 Q 281.79 -14.87 279.55 -15.08 L 279.55 -15.08 Q 279.55 -11.83 279.66 -10.61 L 279.66 -10.61 Q 281.03 -10.58 284.96 -10.58 L 284.96 -10.58 Q 285.9 -10.4 285.9 -9.74 Q 285.9 -9.07 285.14 -8.71 L 285.14 -8.71 Q 285.06 -8.66 284.86 -8.61 L 284.86 -8.61 L 280.36 -8.68 Q 279.94 -8.68 279.68 -8.63 L 279.68 -8.63 L 279.79 -4.16 Q 279.79 -2.65 279.71 -2 L 279.71 -2 L 285.74 -2.08 Q 286.57 -1.95 286.57 -1.38 L 286.57 -1.38 Q 286.57 -0.99 286.22 -0.6 Q 285.87 -0.21 285.4 -0.1 L 285.4 -0.1 L 278.75 0 Q 278.15 0 277.91 -0.22 Q 277.68 -0.44 277.68 -0.96 L 277.68 -0.96 Q 277.78 -1.69 277.78 -3.3 L 277.78 -3.3 L 277.78 -5.12 Z M 303.84 -1.12 Q 303.84 -0.65 303.42 -0.27 Q 303 0.1 302.52 0.1 Q 302.04 0.1 301.86 -0.52 L 301.86 -0.52 Q 301.78 -3.95 301.78 -7.36 L 301.78 -7.36 L 301.7 -13.91 Q 301.7 -15.89 303.45 -16.61 L 303.45 -16.61 Q 304.85 -17.26 306.77 -17.26 L 306.77 -17.26 Q 307.76 -17.26 308.89 -16.78 Q 310.02 -16.3 310.92 -15.38 Q 311.82 -14.46 311.82 -13.38 Q 311.82 -12.3 310.83 -11.06 Q 309.84 -9.83 308.39 -8.88 Q 306.93 -7.93 305.55 -7.46 L 305.55 -7.46 Q 307.97 -5.77 309.76 -3.84 Q 311.56 -1.9 311.56 -0.83 L 311.56 -0.83 Q 311.56 -0.49 311.22 -0.2 Q 310.88 0.1 310.4 0.1 Q 309.92 0.1 309.58 -0.31 L 309.58 -0.31 Q 309.01 -1.69 307.41 -3.21 Q 305.81 -4.73 303.68 -6.11 L 303.68 -6.11 L 303.84 -1.12 Z M 303.73 -8.92 Q 305.47 -9 307.65 -10.37 Q 309.82 -11.75 309.82 -12.86 Q 309.82 -13.96 308.72 -14.56 Q 307.63 -15.16 306.14 -15.16 Q 304.64 -15.16 303.76 -14.79 L 303.76 -14.79 Q 303.73 -13.47 303.73 -8.92 L 303.73 -8.92 Z" stroke-linecap="round" />
</g>
</g>
</g>
</g>
</g>
</svg>